# xmcd
#
# Track frame offsets: 
#        150
#        19243
#        35265
#        50973
#        64779
#        85943
#        102201
#        116633
#        136508
#        151768
#        169149
#        184629
#        202495
#        217786
#        235438
#        253014
#        269735
#        284012
#        302433
#        317013
#
# Disc length: 4543 seconds
#
# Revision: 0
# Processed by: cddbd v1.5.2PL0 Copyright (c) Steve Scherf et al.
# Submitted via: ExactAudioCopy v1.0b3
#
DISCID=2411bd14
DTITLE=Legende - Trilogija [Disk 3]
DYEAR=2012
DGENRE=Folk
TTITLE0=Ej, mladosti
TTITLE1=Nova godina
TTITLE2=Probudi se
TTITLE3=Gledas me
TTITLE4=Gusta magla
TTITLE5=I da te ne volim
TTITLE6=Zasp'o Janko pod jablanom
TTITLE7=Da si bila tu
TTITLE8=Nasmejana
TTITLE9=Sve ti priznajem
TTITLE10=Pijem zbog tebe
TTITLE11=Ej, da me je
TTITLE12=Na krilima
TTITLE13=Marijo
TTITLE14=A mogli smo sve
TTITLE15=Ceznja
TTITLE16=Noc o kojoj snivas
TTITLE17=A sada znam
TTITLE18=Sen
TTITLE19=Jano mori
EXTD=
EXTT0=
EXTT1=
EXTT2=
EXTT3=
EXTT4=
EXTT5=
EXTT6=
EXTT7=
EXTT8=
EXTT9=
EXTT10=
EXTT11=
EXTT12=
EXTT13=
EXTT14=
EXTT15=
EXTT16=
EXTT17=
EXTT18=
EXTT19=
PLAYORDER=
